<svg xmlns="http://www.w3.org/2000/svg" xmlns:xlink="http://www.w3.org/1999/xlink" contentStyleType="text/css" data-diagram-type="CLASS" height="269px" preserveAspectRatio="none" style="width:768px;height:269px;background:#FFFFFF;" version="1.1" viewBox="0 0 768 269" width="768px" zoomAndPan="magnify"><title>R&#232;gles de calcul &#8212; Jours ouvr&#233;s et Solde</title><defs/><g><g class="title" data-source-line="43"><text fill="#000000" font-family="sans-serif" font-size="14" font-weight="bold" lengthAdjust="spacing" textLength="278.2021" x="238.0483" y="24.5332">R&#232;gles de calcul &#8212; Jours ouvr&#233;s et Solde</text></g><!--class Calculs--><g class="entity" data-entity="Calculs" data-source-line="45" data-uid="ent0002" id="entity_Calculs"><rect fill="#F1F1F1" height="83.2188" rx="2.5" ry="2.5" style="stroke:#181818;stroke-width:0.5;" width="315.8643" x="7" y="49.1094"/><ellipse cx="137.7305" cy="65.1094" fill="#ADD1B2" rx="11" ry="11" style="stroke:#181818;stroke-width:1;"/><path d="M140.4961,60.9844 Q140.6523,60.7656 140.8398,60.6563 Q141.0273,60.5469 141.2461,60.5469 Q141.6211,60.5469 141.8555,60.8125 Q142.0898,61.0625 142.0898,61.6719 L142.0898,63.125 Q142.0898,63.7344 141.8555,64 Q141.6211,64.2656 141.2461,64.2656 Q140.9023,64.2656 140.6992,64.0625 Q140.4961,63.875 140.3867,63.3594 Q140.3398,63 140.1523,62.8125 Q139.8242,62.4375 139.2148,62.2188 Q138.6055,62 137.9805,62 Q137.2148,62 136.5742,62.3281 Q135.9492,62.6563 135.4492,63.4063 Q134.9648,64.1563 134.9648,65.1875 L134.9648,66.2813 Q134.9648,67.5156 135.8555,68.3438 Q136.7461,69.1563 138.3398,69.1563 Q139.2773,69.1563 139.9336,68.9063 Q140.3242,68.75 140.7461,68.3125 Q141.0117,68.0469 141.1523,67.9688 Q141.3086,67.8906 141.5117,67.8906 Q141.8398,67.8906 142.0898,68.1563 Q142.3555,68.4063 142.3555,68.75 Q142.3555,69.0938 142.0117,69.5 Q141.5117,70.0781 140.7148,70.4063 Q139.6367,70.8594 138.3398,70.8594 Q136.8242,70.8594 135.6211,70.2344 Q134.6367,69.7344 133.9492,68.6719 Q133.2617,67.5938 133.2617,66.3125 L133.2617,65.1563 Q133.2617,63.8281 133.8711,62.6875 Q134.4961,61.5313 135.5898,60.9219 Q136.6836,60.2969 137.918,60.2969 Q138.6523,60.2969 139.293,60.4688 Q139.9492,60.625 140.4961,60.9844 Z " fill="#000000"/><text fill="#000000" font-family="sans-serif" font-size="14" lengthAdjust="spacing" textLength="45.9033" x="158.2305" y="70.8379">Calculs</text><line style="stroke:#181818;stroke-width:0.5;" x1="8" x2="321.8643" y1="81.1094" y2="81.1094"/><line style="stroke:#181818;stroke-width:0.5;" x1="8" x2="321.8643" y1="89.1094" y2="89.1094"/><text fill="#000000" font-family="sans-serif" font-size="14" lengthAdjust="spacing" textLength="287.5059" x="13" y="107.6426">+businessDaysBetween(start, end): INTEGER</text><text fill="#000000" font-family="sans-serif" font-size="14" lengthAdjust="spacing" textLength="303.8643" x="13" y="125.252">+annualRemaining(employeeId, year): INTEGER</text></g><!--class leave_requests--><g class="entity" data-entity="leave_requests" data-source-line="50" data-uid="ent0003" id="entity_leave_requests"><rect fill="#F1F1F1" height="48" rx="2.5" ry="2.5" style="stroke:#181818;stroke-width:0.5;" width="126.9512" x="11.5" y="214.6094"/><ellipse cx="26.5" cy="230.6094" fill="#ADD1B2" rx="11" ry="11" style="stroke:#181818;stroke-width:1;"/><path d="M29.2656,226.4844 Q29.4219,226.2656 29.6094,226.1563 Q29.7969,226.0469 30.0156,226.0469 Q30.3906,226.0469 30.625,226.3125 Q30.8594,226.5625 30.8594,227.1719 L30.8594,228.625 Q30.8594,229.2344 30.625,229.5 Q30.3906,229.7656 30.0156,229.7656 Q29.6719,229.7656 29.4688,229.5625 Q29.2656,229.375 29.1563,228.8594 Q29.1094,228.5 28.9219,228.3125 Q28.5938,227.9375 27.9844,227.7188 Q27.375,227.5 26.75,227.5 Q25.9844,227.5 25.3438,227.8281 Q24.7188,228.1563 24.2188,228.9063 Q23.7344,229.6563 23.7344,230.6875 L23.7344,231.7813 Q23.7344,233.0156 24.625,233.8438 Q25.5156,234.6563 27.1094,234.6563 Q28.0469,234.6563 28.7031,234.4063 Q29.0938,234.25 29.5156,233.8125 Q29.7813,233.5469 29.9219,233.4688 Q30.0781,233.3906 30.2813,233.3906 Q30.6094,233.3906 30.8594,233.6563 Q31.125,233.9063 31.125,234.25 Q31.125,234.5938 30.7813,235 Q30.2813,235.5781 29.4844,235.9063 Q28.4063,236.3594 27.1094,236.3594 Q25.5938,236.3594 24.3906,235.7344 Q23.4063,235.2344 22.7188,234.1719 Q22.0313,233.0938 22.0313,231.8125 L22.0313,230.6563 Q22.0313,229.3281 22.6406,228.1875 Q23.2656,227.0313 24.3594,226.4219 Q25.4531,225.7969 26.6875,225.7969 Q27.4219,225.7969 28.0625,225.9688 Q28.7188,226.125 29.2656,226.4844 Z " fill="#000000"/><text fill="#000000" font-family="sans-serif" font-size="14" lengthAdjust="spacing" textLength="94.9512" x="40.5" y="236.3379">leave_requests</text><line style="stroke:#181818;stroke-width:0.5;" x1="12.5" x2="137.4512" y1="246.6094" y2="246.6094"/><line style="stroke:#181818;stroke-width:0.5;" x1="12.5" x2="137.4512" y1="254.6094" y2="254.6094"/></g><!--class employees--><g class="entity" data-entity="employees" data-source-line="51" data-uid="ent0005" id="entity_employees"><rect fill="#F1F1F1" height="48" rx="2.5" ry="2.5" style="stroke:#181818;stroke-width:0.5;" width="99.7031" x="205" y="214.6094"/><ellipse cx="220" cy="230.6094" fill="#ADD1B2" rx="11" ry="11" style="stroke:#181818;stroke-width:1;"/><path d="M222.7656,226.4844 Q222.9219,226.2656 223.1094,226.1563 Q223.2969,226.0469 223.5156,226.0469 Q223.8906,226.0469 224.125,226.3125 Q224.3594,226.5625 224.3594,227.1719 L224.3594,228.625 Q224.3594,229.2344 224.125,229.5 Q223.8906,229.7656 223.5156,229.7656 Q223.1719,229.7656 222.9688,229.5625 Q222.7656,229.375 222.6563,228.8594 Q222.6094,228.5 222.4219,228.3125 Q222.0938,227.9375 221.4844,227.7188 Q220.875,227.5 220.25,227.5 Q219.4844,227.5 218.8438,227.8281 Q218.2188,228.1563 217.7188,228.9063 Q217.2344,229.6563 217.2344,230.6875 L217.2344,231.7813 Q217.2344,233.0156 218.125,233.8438 Q219.0156,234.6563 220.6094,234.6563 Q221.5469,234.6563 222.2031,234.4063 Q222.5938,234.25 223.0156,233.8125 Q223.2813,233.5469 223.4219,233.4688 Q223.5781,233.3906 223.7813,233.3906 Q224.1094,233.3906 224.3594,233.6563 Q224.625,233.9063 224.625,234.25 Q224.625,234.5938 224.2813,235 Q223.7813,235.5781 222.9844,235.9063 Q221.9063,236.3594 220.6094,236.3594 Q219.0938,236.3594 217.8906,235.7344 Q216.9063,235.2344 216.2188,234.1719 Q215.5313,233.0938 215.5313,231.8125 L215.5313,230.6563 Q215.5313,229.3281 216.1406,228.1875 Q216.7656,227.0313 217.8594,226.4219 Q218.9531,225.7969 220.1875,225.7969 Q220.9219,225.7969 221.5625,225.9688 Q222.2188,226.125 222.7656,226.4844 Z " fill="#000000"/><text fill="#000000" font-family="sans-serif" font-size="14" lengthAdjust="spacing" textLength="67.7031" x="234" y="236.3379">employees</text><line style="stroke:#181818;stroke-width:0.5;" x1="206" x2="303.7031" y1="246.6094" y2="246.6094"/><line style="stroke:#181818;stroke-width:0.5;" x1="206" x2="303.7031" y1="254.6094" y2="254.6094"/></g><g class="entity" data-entity="GMN7" data-source-line="54" data-uid="ent0008" id="entity_GMN7"><path d="M358.5,44.6094 L358.5,86.6094 L323.15,90.6094 L358.5,94.6094 L358.5,136.3672 A0,0 0 0 0 358.5,136.3672 L761.2988,136.3672 A0,0 0 0 0 761.2988,136.3672 L761.2988,54.6094 L751.2988,44.6094 L358.5,44.6094 A0,0 0 0 0 358.5,44.6094" fill="#FEFFDD" style="stroke:#181818;stroke-width:0.5;"/><path d="M751.2988,44.6094 L751.2988,54.6094 L761.2988,54.6094 L751.2988,44.6094" fill="#FEFFDD" style="stroke:#181818;stroke-width:0.5;"/><text fill="#000000" font-family="sans-serif" font-size="13" lengthAdjust="spacing" textLength="263.7388" x="364.5" y="63.1045">Jours ouvr&#233;s: tous les jours entre start et end,</text><text fill="#000000" font-family="sans-serif" font-size="13" lengthAdjust="spacing" textLength="200.8589" x="364.5" y="79.4561">hors samedi et dimanche (inclusif).</text><text fill="#000000" font-family="sans-serif" font-size="13" lengthAdjust="spacing" textLength="3.6118" x="364.5" y="95.8076">&#160;</text><text fill="#000000" font-family="sans-serif" font-size="13" lengthAdjust="spacing" textLength="200.5732" x="364.5" y="112.1592">Solde annuel = annual_entitlement</text><text fill="#000000" font-family="sans-serif" font-size="13" lengthAdjust="spacing" textLength="378.187" x="368.1118" y="128.5107">- somme(days des demandes ANNUAL APPROVED sur l'ann&#233;e).</text></g><!--link Calculs to leave_requests--><g class="link" data-entity-1="Calculs" data-entity-2="leave_requests" data-source-line="50" data-uid="lnk4" id="link_Calculs_leave_requests"><path codeLine="50" d="M98.51,132.5294 C87.78,142.2994 78.17,153.6994 72,166.6094 C64.92,181.4094 66.01,199.9994 68.69,214.4394" fill="none" id="Calculs-leave_requests" style="stroke:#181818;stroke-width:1;stroke-dasharray:7.0,7.0;"/><text fill="#000000" font-family="sans-serif" font-size="13" lengthAdjust="spacing" textLength="138.0107" x="73" y="181.1045">utilise days, type, status</text></g><!--link Calculs to employees--><g class="link" data-entity-1="Calculs" data-entity-2="employees" data-source-line="51" data-uid="lnk6" id="link_Calculs_employees"><path codeLine="51" d="M193.77,132.4094 C201.22,143.3794 209.09,155.3294 216,166.6094 C225.63,182.3194 235.61,200.5394 243.07,214.5894" fill="none" id="Calculs-employees" style="stroke:#181818;stroke-width:1;stroke-dasharray:7.0,7.0;"/><text fill="#000000" font-family="sans-serif" font-size="13" lengthAdjust="spacing" textLength="146.707" x="227" y="181.1045">utilise annual_entitlement</text></g><!--SRC=[RLHBRjim4Dtp50DlQgEAqMwDD81ZgwcILdNzATgLGOiJcob5kYAPm0aCT9a3z13DENoJdAGaBTcoanMf8UVDp7kFCjm8X56ss3pb5CxxyFpdBroWDbn9OAYXf-HyywIXsViqWMGcOSGbRH6YVt6vf0ND8HDKwwun1PzPWqccv8ZV8xmZ2yuGCbva0hVx7Cr2CKr8I07CbqAjq1Lv801lWRCEZECVOpWz7LoTdOMOf3bke-6JIccfcA8qlk_ShHr8qd5y4G_9ki8LI6znMk1lw-Pu1NoI9jycSLc0SRqKT3NrvnMIZrVDJMk97w_sFRSvAn6qeOMPCchgZQ9ano6pMjO_LqYBmvAChlHXn44Rgsj91TvWvhLnur6jP7cq6rtxeMMsetHFNvtKMoei7X2tbwBnlW6d9oVGa8rZ8ZjrKWYHoY0KVBumeAwFxf9jv_3y-0WFWpZj9-b51Dt1OFZrUzoFO1XVnhrnt5yJpyhsMZTD9ztF4OoItbK4atJGJTpDBzrnF4oJySy81jLsJHozuEkNNSoKCIhtRUm68I-j0XzSJZuhq1aRRfGjTF0J2hTQemgkdT7hq7Ytf7Ca0G26ctzpuGZodgOYio8ybSi0e-njuHy96XWfmR2IenSkLcBChEOIjUuxdS_Ht27APZ1FvEtIEfH-s_uGSyebb_DcDLZ2ec2Tre5-LQ5s-wLerd31DGPxHS65KMciUjhU0VkCbnGUgru2a0CQEc2KzSzGbooxH4Tw6DLJv8QDo4Av0-tioRYFCPvJcIqGcbncmX5rtMeJ4iWiHNBglT8Fd81MUOvDFrtuOJ57cVIRhPzsfWDj2n1l7CRc2HrufVD_]--></g></svg>